<?xml version="1.0" encoding="UTF-8"?>
<svg id="Warstwa_1" xmlns="http://www.w3.org/2000/svg" version="1.1" viewBox="0 0 800 800">
  <!-- Generator: Adobe Illustrator 29.0.0, SVG Export Plug-In . SVG Version: 2.1.0 Build 186)  -->
  <defs>
    <style>
      .st0 {
        fill: #fff;
      }
    </style>
  </defs>
  <g>
    <path class="st0" d="M172.12,370.14v47.24c-20.32,1.33-13.6-2.89-12.91-15.69.54-10.06.5-20.64-2.19-30.33-3.93-3.22-10.84-.04-10.84,4.34v41.69h-12.97v-46.32c-2.78-2.17-11.12.09-11.12,2.78v43.54h-12.97v-57.43l10.04-.09,2,3.8c5.89-7.48,20.97-8.62,23.18,1.85h1.82c1.57-9.41,16.95-10.3,22.31-2.83.76,1.04,3.65,7.04,3.65,7.47Z"/>
    <path class="st0" d="M690.87,359.95l-11.12,57.43-14.65-.17-8.5-35.05-6.48,35.22-14.65-.17-13.14-57.27,14.82-.02,3.71,31.51c3.76-.72,3.09-3.85,3.76-6.43,1.3-5.02,2.83-20.69,4.48-23.33,2.04-3.28,11.86-1.28,15.8-1.72l6.52,33.33,6.65-33.18,12.8-.17Z"/>
    <path class="st0" d="M366.65,373.85v43.54h-12.97v-36.13c0-3.74-4.61-8.93-8.71-9.84-25.25-5.52-15.21,28.25-17.45,42.96l-2.76,2.78-11.84.22v-83.37h12.97v29.64c4.72.19,8.11-4.3,12.39-5.21,7.89-1.69,16.32-.98,21.95,5.13,1.24,1.35,6.41,9.62,6.41,10.26Z"/>
    <path class="st0" d="M429.7,366.38c-10.93-15.62-46.28-9.67-46.37,12.1,3.65-.43,8.47.82,11.82-.22,2.72-.85,2.83-4.71,4.87-6.24,8.49-6.37,21.34-1.41,20.36,10.17-11.1-.19-29.38-1.7-36.04,9.36-10.93,18.16,12.78,34.48,30.4,24.83,3.89-2.13,7.78-10.28,7.54.94l11.06.07v-43.54c0-.44-2.89-6.39-3.65-7.47ZM401.22,405.95c-3.96-1.17-6.98-6.74-3.17-9.97,4.35-5.24,15.97-1.72,22.33-2.69-2.61,9.69-8.34,15.86-19.16,12.65Z"/>
    <path class="st0" d="M500.05,417.39c.31-3.48-1.28-10.1,1.78-12.15,4.45-2.98,15.6,4.95,16.79-3.56,1.06-7.43-.65-17.12-.24-24.86-8.47-2.72-14.84-4.54-12.77-15.01l12.97,3.71c-2.63-29.42,2.08-34.13,31.5-31.51v11.13l-15.53.2-2.78,2.78-.02,22.75c9.91,2.91,14.78,5.34,12.77,16.88l-12.97-3.71v20.38l18.6.82,1.78,12.15h-51.88Z"/>
    <path class="st0" d="M581.05,358.51c-24.9,4.52-29.35,42.19-8.69,56.04,15.62,10.45,40.59,2.11,44-17.03,4.35-24.44-9.32-43.74-35.31-39.02ZM581.05,404.01c-12.12-6.04-10.26-29.46,3.65-32.61,28.92-6.54,22.64,45.72-3.65,32.61Z"/>
    <path class="st0" d="M490.78,430.34v11.13h-50.02v-11.12h25.94v-59.29h-16.67v-11.13c7.23.89,24.23-2.61,28.68,3.74.44.61,2.82,6.11,2.82,6.47v60.21l9.26-.02Z"/>
    <path class="st0" d="M274.5,405.94c8.84-1.33,8.93-7.84,11.78-8.71,3.35-1.06,8.17.2,11.82-.22-.17,12.6-12.8,22.42-25.01,22.38-40.91-.13-38.87-67.83,5.5-61.23,9,1.33,21.25,12.14,19.51,22.18-3.65-.43-8.47.82-11.82-.22-3.54-1.11-3.28-9.69-15.04-9.17-20.45.87-17.23,38.07,3.26,35Z"/>
    <path class="st0" d="M235.11,417.39h-50.02l1.82-12.15,16.71-.82-.22-30.37-2.78-2.78-13.67-.2v-11.13l22.86.3c2.11.57,6.78,7,6.78,8.06v37.98l16.71-1.04,1.82,12.15Z"/>
    <rect class="st0" x="186.94" y="334.01" width="29.64" height="11.12"/>
    <rect class="st0" x="450.02" y="334.01" width="29.64" height="11.12"/>
  </g>
  <g>
    <path class="st0" d="M541.12,466.33v-29.11h4.08v29.11h-4.08ZM543.88,466.33v-3.88h6.59c2.15,0,3.81-.56,4.99-1.67,1.18-1.11,1.77-2.69,1.77-4.71v-8.57c0-2.03-.59-3.6-1.77-4.71-1.18-1.11-2.85-1.67-4.99-1.67h-6.59v-3.88h6.47c3.52,0,6.25.91,8.18,2.73,1.93,1.82,2.89,4.39,2.89,7.7v8.25c0,2.2-.43,4.08-1.3,5.63-.87,1.56-2.13,2.74-3.78,3.56-1.66.82-3.66,1.23-6.01,1.23h-6.45Z"/>
    <path class="st0" d="M570.63,466.33v-29.11h4.08v29.11h-4.08ZM572.61,441.1v-3.88h16.72v3.88h-16.72ZM572.61,453.81v-3.88h14.51v3.88h-14.51ZM572.61,466.33v-3.88h16.72v3.88h-16.72Z"/>
    <path class="st0" d="M606.88,466.63c-1.42,0-2.75-.13-3.99-.4-1.25-.27-2.42-.67-3.5-1.2-1.09-.53-2.11-1.2-3.05-2l2.54-3.12c1.11.96,2.33,1.68,3.66,2.16,1.33.48,2.78.72,4.34.72,2.11,0,3.74-.39,4.9-1.18,1.16-.79,1.74-1.89,1.74-3.3v-.02c0-1.11-.29-1.96-.88-2.54-.59-.59-1.36-1.02-2.31-1.31-.95-.29-2-.52-3.13-.71-1.09-.19-2.2-.41-3.31-.66-1.11-.25-2.14-.65-3.07-1.19-.93-.54-1.69-1.32-2.25-2.33-.57-1.01-.85-2.37-.85-4.06v-.02c0-2.71.9-4.81,2.7-6.3,1.8-1.49,4.34-2.23,7.63-2.23,1.56,0,3.09.25,4.58.75,1.49.5,2.95,1.26,4.36,2.29l-2.32,3.24c-1.11-.83-2.21-1.44-3.31-1.84-1.1-.4-2.21-.6-3.31-.6-1.99,0-3.53.4-4.63,1.19-1.1.79-1.65,1.92-1.65,3.37v.02c0,1.09.32,1.93.96,2.5.64.57,1.48,1,2.51,1.27,1.03.27,2.15.53,3.33.77,1.07.21,2.14.47,3.2.77,1.07.3,2.04.73,2.91,1.3.87.57,1.57,1.34,2.1,2.33.53.99.79,2.28.79,3.86v.04c0,2.68-.93,4.76-2.8,6.23-1.87,1.47-4.5,2.2-7.89,2.2Z"/>
    <path class="st0" d="M630.06,437.22v29.11h-4.08v-29.11h4.08Z"/>
    <path class="st0" d="M650.08,450.65h10.09v5.09c0,2.19-.42,4.1-1.27,5.74s-2.03,2.9-3.55,3.8c-1.52.9-3.31,1.35-5.37,1.35s-3.88-.42-5.43-1.27c-1.55-.85-2.75-2.04-3.6-3.58-.85-1.54-1.28-3.34-1.28-5.39v-8.59c0-2.19.42-4.1,1.27-5.73.85-1.63,2.03-2.89,3.55-3.79,1.52-.9,3.31-1.35,5.37-1.35,1.69,0,3.24.36,4.63,1.08s2.57,1.73,3.51,3.02c.95,1.29,1.59,2.81,1.92,4.54h-4.42c-.37-1.51-1.1-2.66-2.18-3.46s-2.24-1.2-3.46-1.2c-1.82,0-3.27.63-4.36,1.89-1.09,1.26-1.64,2.93-1.64,5v8.59c0,1.89.56,3.41,1.68,4.55,1.12,1.14,2.6,1.71,4.44,1.71s3.27-.6,4.36-1.8c1.09-1.2,1.64-2.88,1.64-5.02v-1.26h-5.91v-3.9Z"/>
    <path class="st0" d="M669.37,466.31v-29.09h3.7l14.23,22.5-.48.52v-23.02h4.04v29.09h-3.74l-14.19-22.16.48-.52v22.68h-4.04Z"/>
  </g>
</svg>